<?xml version="1.0" encoding="UTF-8" standalone="no"?>
<!-- Created with Inkscape (http://www.inkscape.org/) -->

<svg
   xmlns:dc="http://purl.org/dc/elements/1.1/"
   xmlns:cc="http://creativecommons.org/ns#"
   xmlns:rdf="http://www.w3.org/1999/02/22-rdf-syntax-ns#"
   xmlns:svg="http://www.w3.org/2000/svg"
   xmlns="http://www.w3.org/2000/svg"
   xmlns:sodipodi="http://sodipodi.sourceforge.net/DTD/sodipodi-0.dtd"
   xmlns:inkscape="http://www.inkscape.org/namespaces/inkscape"
   width="210mm"
   height="297mm"
   viewBox="0 0 210 297"
   version="1.1"
   id="svg8"
   inkscape:version="0.92.4 (5da689c313, 2019-01-14)"
   sodipodi:docname="erudytaLogo.svg">
  <defs
     id="defs2" />
  <sodipodi:namedview
     id="base"
     pagecolor="#ffffff"
     bordercolor="#666666"
     borderopacity="1.0"
     inkscape:pageopacity="0.0"
     inkscape:pageshadow="2"
     inkscape:zoom="1.6893798"
     inkscape:cx="394.83372"
     inkscape:cy="733.41686"
     inkscape:document-units="mm"
     inkscape:current-layer="layer1"
     showgrid="false"
     inkscape:window-width="1920"
     inkscape:window-height="1033"
     inkscape:window-x="1362"
     inkscape:window-y="-4"
     inkscape:window-maximized="1" />
  <metadata
     id="metadata5">
    <rdf:RDF>
      <cc:Work
         rdf:about="">
        <dc:format>image/svg+xml</dc:format>
        <dc:type
           rdf:resource="http://purl.org/dc/dcmitype/StillImage" />
        <dc:title></dc:title>
      </cc:Work>
    </rdf:RDF>
  </metadata>
  <g
     inkscape:label="Layer 1"
     inkscape:groupmode="layer"
     id="layer1">
    <circle
       style="fill:#800000;stroke:#000000;stroke-width:0.208;stroke-miterlimit:4;stroke-dasharray:none;stroke-opacity:1"
       id="path819"
       cx="73.324188"
       cy="141.649"
       r="24" />
    <g
       id="g874"
       transform="translate(29.996259,33.329177)">
      <path
         inkscape:connector-curvature="0"
         id="path839-5"
         d="m 43.468152,88.677421 a 21.523656,20.480354 0 0 0 -21.523699,20.480399 21.523656,20.480354 0 0 0 12.526388,18.58104 21.523656,20.480354 0 0 1 -9.157432,-16.74916 21.523656,20.480354 0 0 1 21.5237,-20.479899 21.523656,20.480354 0 0 1 8.998385,1.89988 21.523656,20.480354 0 0 0 -12.367342,-3.73226 z"
         style="fill:#d40000;stroke:none;stroke-width:0.29113796;stroke-miterlimit:4;stroke-dasharray:none;stroke-opacity:1" />
      <path
         inkscape:connector-curvature="0"
         id="path839"
         d="m 41.939434,87.619087 a 20.700502,20.700502 0 0 0 -20.700543,20.700543 20.700502,20.700502 0 0 0 12.047327,18.78077 20.700502,20.700502 0 0 1 -8.807215,-16.9292 20.700502,20.700502 0 0 1 20.700545,-20.700033 20.700502,20.700502 0 0 1 8.654251,1.9203 20.700502,20.700502 0 0 0 -11.894365,-3.77238 z"
         style="fill:#550000;stroke:none;stroke-width:0.28704697;stroke-miterlimit:4;stroke-dasharray:none;stroke-opacity:1" />
    </g>
    <text
       xml:space="preserve"
       style="font-style:normal;font-variant:normal;font-weight:bold;font-stretch:normal;font-size:10.58333302px;line-height:1.25;font-family:sans-serif;-inkscape-font-specification:'sans-serif, Bold';font-variant-ligatures:normal;font-variant-caps:normal;font-variant-numeric:normal;font-feature-settings:normal;text-align:center;letter-spacing:0px;word-spacing:0px;writing-mode:lr-tb;text-anchor:middle;fill:#ffffff;fill-opacity:1;stroke:none;stroke-width:0.26458332"
       x="73.300934"
       y="151.34155"
       id="text817"><tspan
         sodipodi:role="line"
         x="73.300934"
         y="151.34155"
         style="font-style:normal;font-variant:normal;font-weight:bold;font-stretch:normal;font-size:10.58333302px;font-family:sans-serif;-inkscape-font-specification:'sans-serif, Bold';font-variant-ligatures:normal;font-variant-caps:normal;font-variant-numeric:normal;font-feature-settings:normal;text-align:center;writing-mode:lr-tb;text-anchor:middle;fill:#ffffff;stroke-width:0.26458332"
         id="tspan821">rudyta</tspan></text>
    <text
       xml:space="preserve"
       style="font-style:normal;font-variant:normal;font-weight:bold;font-stretch:normal;font-size:22.57777786px;line-height:1.25;font-family:sans-serif;-inkscape-font-specification:'sans-serif Bold';letter-spacing:0px;word-spacing:0px;fill:#ffffff;fill-opacity:1;stroke:none;stroke-width:0.26458332"
       x="65.403221"
       y="140.83998"
       id="text827"><tspan
         sodipodi:role="line"
         id="tspan825"
         x="65.403221"
         y="140.83998"
         style="font-style:normal;font-variant:normal;font-weight:bold;font-stretch:normal;font-size:22.57777786px;font-family:sans-serif;-inkscape-font-specification:'sans-serif Bold';fill:#ffffff;stroke-width:0.26458332">E</tspan></text>
    <g
       id="g939">
      <circle
         r="24"
         cy="64.251244"
         cx="135.53865"
         id="path819-1"
         style="fill:#008de8;stroke:#000000;stroke-width:0.208;stroke-miterlimit:4;stroke-dasharray:none;stroke-opacity:1;fill-opacity:1" />
      <path
         inkscape:connector-curvature="0"
         id="path839-5-8-0"
         d="m 119.18791,46.361743 a 23.872276,22.271868 77.753738 0 0 -1.37329,33.574174 23.872276,22.271868 77.753738 0 0 23.28633,7.269941 23.872276,22.271868 77.753738 0 1 -19.35732,-8.097119 23.872276,22.271868 77.753738 0 1 1.37366,-33.573726 23.872276,22.271868 77.753738 0 1 8.28758,-4.840213 23.872276,22.271868 77.753738 0 0 -12.21696,5.666943 z"
         style="fill:#ff1fa0;fill-opacity:1;stroke:none;stroke-width:0.31974027;stroke-miterlimit:4;stroke-dasharray:none;stroke-opacity:1" />
      <path
         inkscape:connector-curvature="0"
         id="path839-5-8"
         d="m 111.59564,60.295908 a 23.872276,22.271868 39.750464 0 0 19.58973,27.301174 23.872276,22.271868 39.750464 0 0 22.82521,-8.609009 23.872276,22.271868 39.750464 0 1 -20.23855,5.5381 23.872276,22.271868 39.750464 0 1 -19.58916,-27.301051 23.872276,22.271868 39.750464 0 1 3.55026,-8.916687 23.872276,22.271868 39.750464 0 0 -6.13749,11.987473 z"
         style="fill:#6200e0;fill-opacity:1;stroke:none;stroke-width:0.31974027;stroke-miterlimit:4;stroke-dasharray:none;stroke-opacity:1" />
      <path
         inkscape:connector-curvature="0"
         id="path839-7"
         d="m 114.92858,77.939554 a 22.061431,24.078854 88.321006 0 0 32.97578,7.621695 22.061431,24.078854 88.321006 0 0 11.68257,-21.290406 22.061431,24.078854 88.321006 0 1 -11.7448,17.313647 22.061431,24.078854 88.321006 0 1 -32.97527,-7.621975 22.061431,24.078854 88.321006 0 1 -3.1959,-8.967844 22.061431,24.078854 88.321006 0 0 3.25762,12.944883 z"
         style="fill:#0a006d;fill-opacity:1;stroke:none;stroke-width:0.31960005;stroke-miterlimit:4;stroke-dasharray:none;stroke-opacity:1" />
    </g>
    <text
       xml:space="preserve"
       style="font-style:normal;font-variant:normal;font-weight:bold;font-stretch:normal;font-size:22.57777786px;line-height:1.25;font-family:sans-serif;-inkscape-font-specification:'sans-serif Bold';letter-spacing:0px;word-spacing:0px;fill:#ffffff;fill-opacity:1;stroke:none;stroke-width:0.26458332"
       x="127.60867"
       y="59.969521"
       id="text827-3"><tspan
         sodipodi:role="line"
         id="tspan825-1"
         x="127.60867"
         y="59.969521"
         style="font-style:normal;font-variant:normal;font-weight:bold;font-stretch:normal;font-size:22.57777786px;font-family:sans-serif;-inkscape-font-specification:'sans-serif Bold';fill:#ffffff;stroke-width:0.26458332">E</tspan></text>
    <text
       xml:space="preserve"
       style="font-style:normal;font-variant:normal;font-weight:bold;font-stretch:normal;font-size:10.58333302px;line-height:1.25;font-family:sans-serif;-inkscape-font-specification:'sans-serif, Bold';font-variant-ligatures:normal;font-variant-caps:normal;font-variant-numeric:normal;font-feature-settings:normal;text-align:center;letter-spacing:0px;word-spacing:0px;writing-mode:lr-tb;text-anchor:middle;fill:#ffffff;fill-opacity:1;stroke:none;stroke-width:0.26458332"
       x="135.50638"
       y="68.96286"
       id="text817-3"><tspan
         sodipodi:role="line"
         x="135.50638"
         y="68.96286"
         style="font-style:normal;font-variant:normal;font-weight:bold;font-stretch:normal;font-size:10.58333302px;font-family:sans-serif;-inkscape-font-specification:'sans-serif, Bold';font-variant-ligatures:normal;font-variant-caps:normal;font-variant-numeric:normal;font-feature-settings:normal;text-align:center;writing-mode:lr-tb;text-anchor:middle;fill:#ffffff;stroke-width:0.26458332"
         id="tspan821-1">rudyta</tspan></text>
  </g>
</svg>
