<?xml version="1.0" encoding="UTF-8" standalone="no"?>
<!-- Created with Inkscape (http://www.inkscape.org/) -->

<svg
   xmlns:dc="http://purl.org/dc/elements/1.1/"
   xmlns:cc="http://creativecommons.org/ns#"
   xmlns:rdf="http://www.w3.org/1999/02/22-rdf-syntax-ns#"
   xmlns:svg="http://www.w3.org/2000/svg"
   xmlns="http://www.w3.org/2000/svg"
   xmlns:sodipodi="http://sodipodi.sourceforge.net/DTD/sodipodi-0.dtd"
   xmlns:inkscape="http://www.inkscape.org/namespaces/inkscape"
   width="210mm"
   height="297mm"
   viewBox="0 0 210 297"
   version="1.1"
   id="svg8"
   inkscape:version="0.92.4 (5da689c313, 2019-01-14)"
   sodipodi:docname="erudytaLogo2.svg">
  <defs
     id="defs2" />
  <sodipodi:namedview
     id="base"
     pagecolor="#ffffff"
     bordercolor="#666666"
     borderopacity="1.0"
     inkscape:pageopacity="0.0"
     inkscape:pageshadow="2"
     inkscape:zoom="1.8306716"
     inkscape:cx="387.00336"
     inkscape:cy="746.13566"
     inkscape:document-units="mm"
     inkscape:current-layer="layer1"
     showgrid="false"
     inkscape:window-width="1920"
     inkscape:window-height="1033"
     inkscape:window-x="1362"
     inkscape:window-y="-4"
     inkscape:window-maximized="1" />
  <metadata
     id="metadata5">
    <rdf:RDF>
      <cc:Work
         rdf:about="">
        <dc:format>image/svg+xml</dc:format>
        <dc:type
           rdf:resource="http://purl.org/dc/dcmitype/StillImage" />
        <dc:title></dc:title>
      </cc:Work>
    </rdf:RDF>
  </metadata>
  <g
     inkscape:label="Layer 1"
     inkscape:groupmode="layer"
     id="layer1">
    <circle
       style="fill:#800000;fill-opacity:1;stroke:#000000;stroke-width:0.208;stroke-miterlimit:4;stroke-dasharray:none;stroke-opacity:1"
       id="path819-1"
       cx="135.53865"
       cy="64.251244"
       r="24" />
    <path
       style="fill:#aa0000;fill-opacity:1;stroke:none;stroke-width:0.31974027;stroke-miterlimit:4;stroke-dasharray:none;stroke-opacity:1"
       d="m 119.18791,46.361743 a 23.872276,22.271868 77.753738 0 0 -1.37329,33.574174 23.872276,22.271868 77.753738 0 0 23.28633,7.269941 23.872276,22.271868 77.753738 0 1 -19.35732,-8.097119 23.872276,22.271868 77.753738 0 1 1.37366,-33.573726 23.872276,22.271868 77.753738 0 1 8.28758,-4.840213 23.872276,22.271868 77.753738 0 0 -12.21696,5.666943 z"
       id="path839-5-8-0"
       inkscape:connector-curvature="0" />
    <path
       style="fill:#ff0000;fill-opacity:1;stroke:none;stroke-width:0.31974027;stroke-miterlimit:4;stroke-dasharray:none;stroke-opacity:1"
       d="m 111.59564,60.295908 a 23.872276,22.271868 39.750464 0 0 19.58973,27.301174 23.872276,22.271868 39.750464 0 0 22.82521,-8.609009 23.872276,22.271868 39.750464 0 1 -20.23855,5.5381 23.872276,22.271868 39.750464 0 1 -19.58916,-27.301051 23.872276,22.271868 39.750464 0 1 3.55026,-8.916687 23.872276,22.271868 39.750464 0 0 -6.13749,11.987473 z"
       id="path839-5-8"
       inkscape:connector-curvature="0" />
    <path
       style="fill:#550000;fill-opacity:1;stroke:none;stroke-width:0.31960005;stroke-miterlimit:4;stroke-dasharray:none;stroke-opacity:1"
       d="m 114.92858,77.939554 a 22.061431,24.078854 88.321006 0 0 32.97578,7.621695 22.061431,24.078854 88.321006 0 0 11.68257,-21.290406 22.061431,24.078854 88.321006 0 1 -11.7448,17.313647 22.061431,24.078854 88.321006 0 1 -32.97527,-7.621975 22.061431,24.078854 88.321006 0 1 -3.1959,-8.967844 22.061431,24.078854 88.321006 0 0 3.25762,12.944883 z"
       id="path839-7"
       inkscape:connector-curvature="0" />
    <text
       xml:space="preserve"
       style="font-style:normal;font-variant:normal;font-weight:bold;font-stretch:normal;font-size:22.57777786px;line-height:1.25;font-family:sans-serif;-inkscape-font-specification:'sans-serif Bold';letter-spacing:0px;word-spacing:0px;fill:#ffffff;fill-opacity:1;stroke:none;stroke-width:0.26458332"
       x="127.60867"
       y="59.969521"
       id="text827-3"><tspan
         sodipodi:role="line"
         id="tspan825-1"
         x="127.60867"
         y="59.969521"
         style="font-style:normal;font-variant:normal;font-weight:bold;font-stretch:normal;font-size:22.57777786px;font-family:sans-serif;-inkscape-font-specification:'sans-serif Bold';fill:#ffffff;stroke-width:0.26458332">E</tspan></text>
    <text
       xml:space="preserve"
       style="font-style:normal;font-variant:normal;font-weight:bold;font-stretch:normal;font-size:10.58333302px;line-height:1.25;font-family:sans-serif;-inkscape-font-specification:'sans-serif, Bold';font-variant-ligatures:normal;font-variant-caps:normal;font-variant-numeric:normal;font-feature-settings:normal;text-align:center;letter-spacing:0px;word-spacing:0px;writing-mode:lr-tb;text-anchor:middle;fill:#ffffff;fill-opacity:1;stroke:none;stroke-width:0.26458332"
       x="135.50638"
       y="68.96286"
       id="text817-3"><tspan
         sodipodi:role="line"
         x="135.50638"
         y="68.96286"
         style="font-style:normal;font-variant:normal;font-weight:bold;font-stretch:normal;font-size:10.58333302px;font-family:sans-serif;-inkscape-font-specification:'sans-serif, Bold';font-variant-ligatures:normal;font-variant-caps:normal;font-variant-numeric:normal;font-feature-settings:normal;text-align:center;writing-mode:lr-tb;text-anchor:middle;fill:#ffffff;stroke-width:0.26458332"
         id="tspan821-1">rudyta</tspan></text>
    <circle
       style="fill:#800000;fill-opacity:1;stroke:#000000;stroke-width:0.208;stroke-miterlimit:4;stroke-dasharray:none;stroke-opacity:1"
       id="path819-1-6-5-8"
       cx="116.92316"
       cy="132.23805"
       r="24" />
    <path
       style="fill:#aa0000;fill-opacity:1;stroke:none;stroke-width:0.208;stroke-miterlimit:4;stroke-dasharray:none;stroke-opacity:1"
       d="m 118.43258,156.1808 a 24,24 0 0 1 -22.851843,-23.94272 24,24 0 0 1 22.381073,-23.94271 24,24 0 0 0 -1.14309,-0.0574 24,24 0 0 0 -23.999563,24.00007 24,24 0 0 0 23.999563,24.00009 24,24 0 0 0 1.61386,-0.0574 z"
       id="path819-1-6-5"
       inkscape:connector-curvature="0" />
    <path
       style="fill:#ff0000;fill-opacity:1;stroke:none;stroke-width:0.208;stroke-miterlimit:4;stroke-dasharray:none;stroke-opacity:1"
       d="m 134.89014,148.13119 a 24,24 0 0 1 -33.08876,-0.77137 24,24 0 0 1 -1.10426,-32.75587 24,24 0 0 0 -0.848839,0.76773 24,24 0 0 0 3.7e-4,33.94087 24,24 0 0 0 33.940879,3.7e-4 24,24 0 0 0 1.10061,-1.18173 z"
       id="path819-1-6"
       inkscape:connector-curvature="0" />
    <path
       style="fill:#2b0000;fill-opacity:1;stroke:none;stroke-width:0.208;stroke-miterlimit:4;stroke-dasharray:none;stroke-opacity:1"
       d="m 140.86587,130.72863 a 24,24 0 0 1 -23.94272,22.85184 24,24 0 0 1 -23.94272,-22.38107 24,24 0 0 0 -0.05736,1.14309 24,24 0 0 0 24.00008,23.99956 24,24 0 0 0 24.00009,-23.99956 24,24 0 0 0 -0.0574,-1.61386 z"
       id="path819-1-6-3"
       inkscape:connector-curvature="0" />
    <g
       id="g1079"
       transform="translate(-0.18241804,0.18961866)">
      <text
         id="text827-3-9"
         y="130.57387"
         x="109.18461"
         style="font-style:normal;font-variant:normal;font-weight:bold;font-stretch:normal;font-size:22.57777786px;line-height:1.25;font-family:sans-serif;-inkscape-font-specification:'sans-serif Bold';letter-spacing:0px;word-spacing:0px;fill:#cccccc;fill-opacity:1;stroke:none;stroke-width:0.26458332"
         xml:space="preserve"><tspan
           style="font-style:normal;font-variant:normal;font-weight:bold;font-stretch:normal;font-size:22.57777786px;font-family:sans-serif;-inkscape-font-specification:'sans-serif Bold';fill:#cccccc;stroke-width:0.26458332"
           y="130.57387"
           x="109.18461"
           id="tspan825-1-7"
           sodipodi:role="line">E</tspan></text>
      <text
         id="text817-3-3"
         y="140.28986"
         x="117.08232"
         style="font-style:normal;font-variant:normal;font-weight:bold;font-stretch:normal;font-size:10.58333302px;line-height:1.25;font-family:sans-serif;-inkscape-font-specification:'sans-serif, Bold';font-variant-ligatures:normal;font-variant-caps:normal;font-variant-numeric:normal;font-feature-settings:normal;text-align:center;letter-spacing:0px;word-spacing:0px;writing-mode:lr-tb;text-anchor:middle;fill:#cccccc;fill-opacity:1;stroke:none;stroke-width:0.26458332"
         xml:space="preserve"><tspan
           id="tspan821-1-9"
           style="font-style:normal;font-variant:normal;font-weight:bold;font-stretch:normal;font-size:10.58333302px;font-family:sans-serif;-inkscape-font-specification:'sans-serif, Bold';font-variant-ligatures:normal;font-variant-caps:normal;font-variant-numeric:normal;font-feature-settings:normal;text-align:center;writing-mode:lr-tb;text-anchor:middle;fill:#cccccc;stroke-width:0.26458332"
           y="140.28986"
           x="117.08232"
           sodipodi:role="line">rudyta</tspan></text>
    </g>
  </g>
</svg>
