<?xml version="1.0" encoding="UTF-8" standalone="no"?>
<!-- Created with Inkscape (http://www.inkscape.org/) -->

<svg
   xmlns:dc="http://purl.org/dc/elements/1.1/"
   xmlns:cc="http://creativecommons.org/ns#"
   xmlns:rdf="http://www.w3.org/1999/02/22-rdf-syntax-ns#"
   xmlns:svg="http://www.w3.org/2000/svg"
   xmlns="http://www.w3.org/2000/svg"
   xmlns:sodipodi="http://sodipodi.sourceforge.net/DTD/sodipodi-0.dtd"
   xmlns:inkscape="http://www.inkscape.org/namespaces/inkscape"
   width="37.281796mm"
   height="37.281796mm"
   viewBox="0 0 37.281796 37.281797"
   version="1.1"
   id="svg8"
   inkscape:version="0.92.4 (5da689c313, 2019-01-14)"
   sodipodi:docname="wow.svg">
  <defs
     id="defs2" />
  <sodipodi:namedview
     id="base"
     pagecolor="#ffffff"
     bordercolor="#666666"
     borderopacity="1.0"
     inkscape:pageopacity="0.0"
     inkscape:pageshadow="2"
     inkscape:zoom="5.6916741"
     inkscape:cx="62.371807"
     inkscape:cy="84.509406"
     inkscape:document-units="mm"
     inkscape:current-layer="layer1"
     showgrid="false"
     units="mm"
     fit-margin-top="0"
     fit-margin-left="0"
     fit-margin-right="0"
     fit-margin-bottom="0"
     inkscape:window-width="1920"
     inkscape:window-height="1033"
     inkscape:window-x="1362"
     inkscape:window-y="-4"
     inkscape:window-maximized="1" />
  <metadata
     id="metadata5">
    <rdf:RDF>
      <cc:Work
         rdf:about="">
        <dc:format>image/svg+xml</dc:format>
        <dc:type
           rdf:resource="http://purl.org/dc/dcmitype/StillImage" />
        <dc:title></dc:title>
      </cc:Work>
    </rdf:RDF>
  </metadata>
  <g
     inkscape:label="Layer 1"
     inkscape:groupmode="layer"
     id="layer1"
     transform="translate(-33.838316,-46.860891)">
    <g
       aria-label="Wow!"
       style="font-style:normal;font-weight:normal;font-size:10.58333302px;line-height:1.25;font-family:sans-serif;letter-spacing:0px;word-spacing:0px;fill:#ff0000;fill-opacity:1;stroke:#000000;stroke-width:0.17893231;stroke-miterlimit:4;stroke-dasharray:none;stroke-opacity:1"
       id="text3715"
       transform="matrix(1.0708361,-0.45232938,0.45232938,1.0708361,-33.595934,8.9548849)">
      <path
         d="m 47.669887,66.214204 -0.536845,8.063295 -2.741508,0.850446 c -0.198437,-1.028017 -0.373448,-2.196593 -0.525033,-3.505729 -0.0689,0.559483 -0.230132,1.72806 -0.483691,3.505729 l -4.004776,2.22061 -2.926953,-14.01642 5.352498,4.134115 c 0.20548,2.82963 0.462091,2.729565 0.690396,5.557431 0.06339,-1.165821 0.223246,-2.695443 0.479558,-4.588867 h 1.810742 c 0.02481,0.195681 0.0882,0.931554 0.190169,2.207617 l 0.190169,2.54248 c 0.09646,-1.617817 0.966398,-5.350922 1.192397,-6.899837 z"
         style="font-style:normal;font-variant:normal;font-weight:normal;font-stretch:normal;font-size:8.46666622px;font-family:Impact;-inkscape-font-specification:Impact;fill:#ff0000;stroke:#000000;stroke-width:0.17893231;stroke-miterlimit:4;stroke-dasharray:none;stroke-opacity:1"
         id="path3717"
         inkscape:connector-curvature="0"
         sodipodi:nodetypes="ccccccccccccccc" />
      <path
         d="m 51.557135,70.88339 v 0.564012 c 0,0.493338 -0.0248,0.855762 -0.07441,1.087272 -0.04961,0.228754 -0.155716,0.443728 -0.318327,0.644922 -0.162608,0.198438 -0.37207,0.345888 -0.628385,0.44235 -0.253559,0.09371 -0.545703,0.14056 -0.876432,0.14056 -0.369314,0 -0.682129,-0.03996 -0.938444,-0.11989 C 48.464822,73.559936 48.265006,73.437289 48.12169,73.27468 47.98113,73.109316 47.880533,72.910878 47.8199,72.679368 47.75927,72.445102 47.72895,72.09508 47.72895,71.629303 V 71.00328 c 0,-0.509874 0.05512,-0.908127 0.165365,-1.194759 0.110243,-0.286632 0.308681,-0.516764 0.595312,-0.690397 0.286632,-0.173633 0.65319,-0.26045 1.099675,-0.26045 0.374826,0 0.695909,0.0565 0.963249,0.169499 0.270095,0.110243 0.478179,0.254937 0.624251,0.434082 0.146072,0.179145 0.245291,0.363802 0.297656,0.553971 0.05512,0.190169 0.08268,0.479557 0.08268,0.868164 z m -1.670182,-0.413411 c 0,-0.28112 -0.01516,-0.457509 -0.04548,-0.529167 -0.03031,-0.07441 -0.09508,-0.111621 -0.194303,-0.111621 -0.09922,0 -0.165365,0.03721 -0.198438,0.111621 -0.03307,0.07166 -0.04961,0.248047 -0.04961,0.529167 v 1.696759 c 0,0.259071 0.01654,0.42857 0.04961,0.508496 0.03307,0.07717 0.09784,0.115755 0.194303,0.115755 0.09922,0 0.163987,-0.03583 0.194304,-0.107487 0.03307,-0.07166 0.04961,-0.225998 0.04961,-0.463021 z"
         style="font-style:normal;font-variant:normal;font-weight:normal;font-stretch:normal;font-size:8.46666622px;font-family:Impact;-inkscape-font-specification:Impact;fill:#ff0000;stroke:#000000;stroke-width:0.17893231;stroke-miterlimit:4;stroke-dasharray:none;stroke-opacity:1"
         id="path3719"
         inkscape:connector-curvature="0"
         sodipodi:nodetypes="cscccscccssssscccccccscsscsccc" />
      <path
         d="m 59.679489,65.862213 -3.80752,9.761827 -1.082547,-1.299294 c -0.09922,-0.669727 -0.213596,-1.551671 -0.343132,-2.645833 -0.04409,0.479557 -0.129729,0.539404 -0.209659,1.029985 l -0.304152,1.096131 -1.862123,-0.283482 -0.376205,-4.399289 1.296931,-0.283482 c 0.01103,0.143316 0.132294,1.189247 0.363802,3.137793 0.01653,-0.198437 0.140557,-1.244368 0.372071,-3.137793 l 0.912458,-0.283482 0.811467,3.421275 c 0.05237,-0.915017 0.08465,-2.764148 0.285845,-3.940992 z"
         style="font-style:normal;font-variant:normal;font-weight:normal;font-stretch:normal;font-size:8.46666622px;font-family:Impact;-inkscape-font-specification:Impact;fill:#ff0000;stroke:#000000;stroke-width:0.17893231;stroke-miterlimit:4;stroke-dasharray:none;stroke-opacity:1"
         id="path3721"
         inkscape:connector-curvature="0"
         sodipodi:nodetypes="ccccccccccccccc" />
      <path
         d="m 65.638844,63.340256 -5.452659,10.831607 -2.086124,-0.464777 2.672007,-8.963002 z m -5.691778,11.386123 -1.308567,2.250861 -1.326712,-0.817955 0.623485,-1.896509 z"
         style="font-style:normal;font-variant:normal;font-weight:normal;font-stretch:normal;font-size:8.46666622px;font-family:Impact;-inkscape-font-specification:Impact;fill:#ff0000;stroke:#000000;stroke-width:0.17893231;stroke-miterlimit:4;stroke-dasharray:none;stroke-opacity:1"
         id="path3723"
         inkscape:connector-curvature="0"
         sodipodi:nodetypes="cccccccccc" />
    </g>
  </g>
</svg>
